<?xml version="1.0" encoding="utf-8"?>
<!-- Generator: Adobe Illustrator 22.1.0, SVG Export Plug-In . SVG Version: 6.00 Build 0)  -->
<svg version="1.1" id="Layer_1" xmlns="http://www.w3.org/2000/svg" xmlns:xlink="http://www.w3.org/1999/xlink" x="0px" y="0px"
	 viewBox="0 0 566.9 393" style="enable-background:new 0 0 566.9 393;" xml:space="preserve">
<style type="text/css">
	.st0{fill:#B89C64;}
</style>
<title>white-logo</title>
<g id="Слой_3">
	<g id="Слой_1">
		<path class="st0" d="M180.2,354.8c3.8,0.6,5.9,2.4,6.4,5.2l0.1,0.8c0.1,1.1-0.7,3.5-2.5,7.3v0.4l0.5-0.1l10.6-9.5
			c0.9-0.1,4-2.2,9.2-6.5c0.4,0.2,0.9,0.3,1.4,0.3c0-0.4,0.3-0.8,0.7-0.9c0,0,0.1,0,0.1,0l2.3-0.3c4.1,0.6,6.3,1.9,6.7,4
			c-1.8,2.1-3.2,3.3-4.1,3.3c-0.9-0.4-1.9-0.5-2.9-0.4c-2.8,0.5-10.5,8.4-23,23.7c-2.3,3.9-5,6.4-8,7.6l-0.9,0.1
			c-2,0.2-4.4-1.4-7.2-4.8c-0.6-3.3,1.4-11.7,6-25.2C175,357.3,176.6,355.7,180.2,354.8z"/>
		<path class="st0" d="M241,347.3h0.5c9.6,0.9,14.7,4.6,15.3,11.1c0,6.7-6.7,14.3-20.2,22.9c-5.2,4.2-10,6.3-14.3,6.4
			c-7.7-2.3-11.5-6.9-11.5-14c0-5,1.8-10.4,5.5-16.4c1.2-0.6,2.4-1.1,3.7-1.3c3.7,0.6,5.5,2.3,5.5,5c-3.4,6.9-5.1,12.2-5.1,15.7
			c0,1.2,0.3,2.3,0.9,3.3c4.2-0.5,10.2-3.5,17.9-8.9c6.7-5.7,10.1-9.5,10.1-11.4c-0.3,0-0.5-0.1-0.5-0.4l0.9-0.5
			c-3.4-3.4-5.9-5.1-7.5-5.1c-0.4-0.2-0.9-0.4-1.4-0.4c-0.5,0.4-2.4,1.7-5.9,3.9v-0.5c-2.5-0.5-3.8-1.1-3.8-1.7l-0.9,0.4h-0.9V355
			c2.3-2.9,4.1-4.6,5.5-5.1l-0.5-0.8v-0.9h1.4C238.9,347.6,240.6,347.3,241,347.3z M236,356.6h0.5c0.6,0-0.5-0.3-3.3-0.9h-0.5
			C232.1,355.8,233.2,356.1,236,356.6z"/>
		<path class="st0" d="M286.6,343.5c6.7,0,11,2.1,12.6,6.5v0.9c0,0.3-3.1,4.1-9.4,11.4c-1,1.1-3,1.7-5.9,1.7l-1.1-3.3l6.5-10.3
			c-1.8-1.2-5.4-0.5-10.7,2.1c-5.3,2.6-7.7,6.7-7.2,12.4c0.7,1.3,4.6,3,11.7,5.2c7.1,1.4,10.8,3.7,11,6.9
			c-1.1,5.5-6.5,8.9-16.4,10.1c-7.5,0.9-13.3-0.2-17.5-3.1c-3.5-2.6-5.2-4.3-5.2-4.9c-0.9-0.9-1-1.5-0.1-1.9l1.8-1.2
			c2,1.6,4.1,3.1,6.4,4.3c3.2,1.9,7.7,2.2,13.5,1.1l4.6-1.5l1.6-2.7c-0.2-1.5-4.8-3.2-13.9-5.2c-3.5-1.8-5.6-3.6-6.2-5.5
			c-0.5-1-0.9-2.1-1.1-3.1c0-6,6-12.3,18-18.7C280.3,344.3,282.6,344.1,286.6,343.5z"/>
		<path class="st0" d="M337.5,343.6h3.7c3.9,0,6.4,2.6,7.4,7.9c0,6.3-4.3,11.7-12.9,16.2c-5.8,4.5-11,6.8-15.6,6.8
			c-1.4-0.4-2.7-0.6-4.1-0.7c0,0.3-0.1,0.4-0.5,0.4c0.7,4.5,2.5,6.8,5.5,6.8h0.9c2.7,0,9.6-1.6,20.7-4.9c1.7-1.2,3.6-2,5.5-2.6v0.8
			c0.5,0,0.9-0.4,1.4-1.2c-0.3,0-0.5-0.1-0.5-0.3c1.3-0.7,2.7-1.1,4.1-1.2c0,0.5,0.4,0.8,0.9,0.8c0,0,0,0,0.1,0v-1.1h0.5l0.9,0.3
			c0.3-0.3,0.4-0.7,0.5-1.1h0.5v1.1l-0.9,1.2c0.3,0,0.5,0.1,0.5,0.3c-2.1,2.5-4.8,4.4-7.8,5.6c0,1-4.3,3.3-12.9,6.9
			c-3.7,1.3-7.6,2.1-11.5,2.2c-7.9,0-13.6-4-17-12.1v-3.3h0.5v-1.1h-0.9v-1.2h0.5l0.9,0.4l0.5-2.6h-0.9V367h0.5l0.9,0.3
			c1-3.2,2.2-4.8,3.7-4.8l-0.5-0.8c1.5-3.1,3.1-5.1,4.6-5.9l-0.5-0.8v-0.4c1.5,0,2.6-1.1,3.2-3.3c0.7,0,2-1,4.1-3
			C329.1,345.4,333.8,343.9,337.5,343.6z M319.1,366.6c2.1-0.3,7.3-2.8,15.6-7.6c4.6-3.4,6.9-5.3,6.9-5.6l-0.5-0.7
			c0.6,0,0.9-0.3,0.9-0.8c-0.6,0-0.9-0.4-0.9-1.1l0.5-1.9c-0.4-0.2-0.9-0.3-1.4-0.3c-5.1,0.7-10.8,4.5-17,11.3
			C320.8,362.9,319.4,365.1,319.1,366.6L319.1,366.6z"/>
		<path class="st0" d="M381.6,343.5c6.8,0,11,2.1,12.6,6.5v0.9c0,0.3-3.1,4.1-9.4,11.4c-1,1.1-3,1.7-5.9,1.7l-1.1-3.3l6.5-10.3
			c-1.8-1.2-5.4-0.5-10.7,2.1s-7.7,6.8-7.2,12.4c0.7,1.3,4.6,3,11.7,5.2c7.1,1.4,10.8,3.7,11,6.9c-1.1,5.5-6.5,8.9-16.4,10.1
			c-7.5,0.9-13.3-0.2-17.5-3.1c-3.5-2.6-5.3-4.3-5.3-4.9c-0.9-0.9-1-1.5-0.1-1.9l1.8-1.2c2,1.6,4.1,3.1,6.4,4.3
			c3.2,1.9,7.7,2.2,13.5,1.1l4.6-1.5l1.6-2.7c-0.1-1.5-4.8-3.2-13.9-5.2c-3.5-1.8-5.6-3.6-6.2-5.5c-0.5-1-0.9-2.1-1.1-3.1
			c0-6,6-12.3,18-18.7C375.3,344.3,377.6,344,381.6,343.5z"/>
	</g>
	<path class="st0" d="M33.4,229.4v1.2c-2.6-0.1-5.1,0.9-7,2.6c-1.9,1.7-2.9,4.5-2.9,8.5v77.2c0,3.9,1,6.8,3.1,8.5
		c1.9,1.7,4.3,2.6,6.8,2.6v1.1H4V330c2.6,0.1,5.1-0.9,7-2.6c2-1.7,2.9-4.6,2.9-8.6v-77.2c0-4.2-1-7.1-2.9-8.7c-2-1.6-4.5-2.4-7-2.3
		v-1.2H33.4z"/>
	<path class="st0" d="M138.7,229.4v1.2c-1.9,0.2-3.8,0.7-5.6,1.5c-1.5,0.9-2.6,2.3-3.1,3.9c-0.9,2.7-1.3,5.6-1.1,8.5v89.2h-0.6
		L57,246.5v62.6c-0.1,3.9,0.1,7.8,0.6,11.6c0.2,1.9,0.7,3.8,1.6,5.5c1.5,2.4,4.3,3.7,8.1,3.9v1.1H44.1V330c2.2,0,4.3-0.6,6.1-1.8
		c1.4-1.1,2.5-3.1,3.1-6c0.7-4.3,1-8.6,0.9-13v-66.4l-3.1-3.8c-2.7-3.4-4.9-5.6-6.5-6.5c-1.9-1-4-1.6-6.1-2v-1.2h17.4l70.1,86.2
		v-65.7c0.1-3.7-0.1-7.4-0.5-11.1c-0.3-2.2-1.2-4.3-2.8-5.9c-1.5-1.5-3.9-2.3-7.2-2.4v-1.2H138.7z"/>
	<path class="st0" d="M147.3,230.6v-1.2h55.6v15.5h-1c-0.2-3.1-1.3-6-3.2-8.5c-1.9-2.5-5.1-3.8-9.6-3.8h-22.3v46.1h20.8
		c3.9,0,6.6-0.9,8-2.7c1.6-2.2,2.5-4.7,2.8-7.4h1v23.1h-1c-0.1-2.6-1-5.1-2.6-7.1c-1.5-1.9-4.2-2.8-8.2-2.8h-20.7v37.1
		c-0.1,2.9,0.8,5.8,2.6,8.1c1.5,1.9,3.9,3.1,6.4,3.1h1.3v1.1h-29.9V330h1.3c2.5,0,4.8-1.1,6.3-3.1c1.7-2.3,2.6-5.2,2.5-8.1v-76.9
		c0-4.4-0.9-7.4-2.7-8.9c-1.6-1.5-3.8-2.4-6-2.4H147.3z"/>
	<path class="st0" d="M242.7,229.4v1.2c-2.6-0.1-5.1,0.9-7.1,2.6c-1.9,1.7-2.9,4.5-2.9,8.5v77.2c0,3.9,1,6.8,3.1,8.5
		c1.9,1.7,4.3,2.7,6.9,2.7v1.1h-29.4V330c2.6,0.1,5.1-0.9,7-2.6c1.9-1.7,2.9-4.6,2.9-8.6v-77.2c0-4.2-1-7.1-2.9-8.7
		c-2-1.6-4.5-2.4-7-2.4v-1.2L242.7,229.4z"/>
	<path class="st0" d="M348,229.4v1.2c-1.9,0.2-3.8,0.7-5.6,1.5c-1.5,0.9-2.7,2.3-3.2,3.9c-0.9,2.7-1.3,5.6-1.1,8.5v89.2h-0.6
		l-71.2-87.2v62.6c-0.1,3.9,0.1,7.8,0.6,11.6c0.2,1.9,0.7,3.8,1.6,5.5c1.5,2.4,4.3,3.7,8.1,3.9v1.1h-23.2V330c2.2,0,4.3-0.6,6.1-1.8
		c1.4-1.1,2.5-3.1,3.1-6c0.7-4.3,1-8.6,0.9-13v-66.4l-3.1-3.8c-2.7-3.4-4.9-5.6-6.5-6.5c-1.9-1-4-1.6-6.1-2v-1.2h17.4l70.1,86.2
		v-65.7c0.1-3.7-0.1-7.4-0.5-11.1c-0.2-2.2-1.2-4.3-2.8-5.8c-1.5-1.5-3.9-2.3-7.2-2.4v-1.2L348,229.4z"/>
	<path class="st0" d="M386.4,229.4v1.2c-2.6-0.1-5.1,0.9-7,2.6c-1.9,1.7-2.9,4.5-2.9,8.5v77.2c0,3.9,1,6.8,3.1,8.5
		c1.9,1.7,4.3,2.7,6.9,2.7v1.1H357V330c2.6,0.1,5.1-0.9,7-2.6c2-1.7,2.9-4.6,2.9-8.6v-77.2c0-4.2-1-7.1-2.9-8.7
		c-2-1.6-4.5-2.4-7-2.4v-1.2L386.4,229.4z"/>
	<path class="st0" d="M474.8,249.2h-1c-0.5-6.6-2.2-10.9-5.3-12.9c-3.4-2-7.4-3.1-11.3-2.9h-18.5v85.4c0,7.2,3.4,11,10.1,11.2v1.1
		h-29.5V330c2.6,0,5.1-1,7-2.7c1.9-1.7,2.9-4.5,2.9-8.5v-85.4h-18.4c-4-0.1-7.9,0.9-11.3,2.9c-3,2-4.8,6.3-5.3,12.9h-1v-24.9h1
		c0.5,0.9,1.1,1.8,1.8,2.6c0.6,0.6,1.2,1.1,2,1.4c0.9,0.4,1.8,0.7,2.8,0.8c1.3,0.2,2.5,0.3,3.8,0.2h60c3.8,0.1,7.3-1.8,9.3-5h1
		L474.8,249.2z"/>
	<path class="st0" d="M564.2,229.4v1.2c-2.6,0-5.2,0.7-7.4,2.1c-1.9,1.2-3.6,2.6-5.1,4.3c-1.2,1.5-2.5,3.3-3.9,5.4l-21.6,35.8V319
		c0,3.6,1,6.4,3,8.2c2,1.8,4.5,2.8,7.2,2.9v1.1H507V330c2.6,0,5.2-1,7.1-2.8c1.7-1.8,2.6-4.5,2.6-8.3V280l-23.6-38.8
		c-2.5-4.2-4.8-7-6.8-8.4c-2.4-1.5-5.2-2.3-8.1-2.2v-1.2h32.9v1.2c-3.3,0.1-5.5,0.9-6.5,2.4c-0.9,1.2-1.3,2.6-1.4,4.1
		c0,1.5,0.8,3.5,2.5,6.2l19.3,31.4l17.1-28.3c2.6-4.2,3.9-7.5,3.9-9.7c0.1-1.3-0.3-2.6-1-3.7c-0.5-0.7-1.3-1.3-2.1-1.7
		c-0.7-0.3-1.5-0.5-2.3-0.7v-1.2L564.2,229.4z"/>
	<path class="st0" d="M396.9,132.6c-6,11.3-19,22.3-35.5,30.2c-23.4,11.2-19.5,21.9-32.9,38.6h68.4V132.6z"/>
	<path class="st0" d="M396.9,106.1L396.9,106.1V2.7h-65.3c4.7,9.5,5.5,19.5,5.9,25.7c0.2,3.7-1,4.6-2.9,2.4
		c-5.9-6.9-15-22.4-30.7-28h-35c-0.6,0.2-1.3,0.4-2,0.4c-10.6,2.9-18.8,9-24.2,21.4c-4.4,10-5.6,21.7-6.3,33.5
		c-0.8,12.6,0.3,22.7-5.6,22.6c-10.1-0.2-18.5-39.7-10.3-57.8c3.5-7.4,8.1-14.2,13.7-20.1h-8.5c-7.5,7.1-24.8,23.5-10.9,71
		c0.6,2.2-0.6,4.7-3.6,2.3c-9.9-7.7-28.7-23.5-29-40.1C182,18.6,185,9.5,191.1,2.7h-18v62c4.6-2.6,9.3-3.6,10.9-3.2
		c3.9,1,17.1,18.9,21.7,31.5s-3.1,35.3-3.1,35.3s22.6,6,33.3,16.9s32.5,21,32.9,25.8c0.4,4.4-73.5,0.8-95.6-20.3v50.9h118.3
		c-15.6-7.4-28.3-19.3-20.3-22.6c14.8-6.2,75.4-25.1,84.9-68.9s-2.3-73.6-6.2-88.4C353,12.9,384,10,390.2,51.4s-5.2,38.2-3.5,43.6
		C387.8,98.6,393.1,100.3,396.9,106.1z M244.4,52.4c4.1-17.3,6.2-32.3,30.2-39.9s46.3,6.4,47.9,30.8s-8.8,37.2-20.5,42.6
		s-5.5-9.8-2.3-13.2s19.7-32.5,5.3-46c-17.6-16.5-37.8-2-41.7,5.5s-5.3,27.4,12.5,27c15.6-0.3,16.6-18,13.2-23.5s-13.2-1.8-16.2,2
		s-0.4,10.1-2.9,9.5s-6.4-4.7-1.2-13.2s21.4-11.5,27.7-4.7s6.6,8.9,4.9,19.7s-18.1,36.7-22.2,40.6s-26.6,2-30.7-0.5
		S240.3,69.7,244.4,52.4z M339.2,122.7c-7.3,12.7-46.5,50.4-74.2,33.5c-35-21.3-27.9-28.8-49.4-30.4c-0.1-3.3-0.1-27.5,35.3-25.7
		c34.3,1.8,78.3,8.1,79-58c0-2,1.5-2.5,2.5-0.9C355.6,80.5,346.3,110.4,339.2,122.7L339.2,122.7z"/>
</g>
</svg>
