<svg xmlns="http://www.w3.org/2000/svg" xmlns:xlink="http://www.w3.org/1999/xlink" viewBox="0 0 566.93 393"><defs><style>.cls-1{fill:#a5894a;}.cls-2{fill:url(#linear-gradient);}.cls-3{fill:url(#linear-gradient-2);}</style><linearGradient id="linear-gradient" x1="162.01" y1="167.03" x2="400.26" y2="167.03" gradientUnits="userSpaceOnUse"><stop offset="0" stop-color="#a78548"/><stop offset="0.15" stop-color="#a78548"/><stop offset="0.17" stop-color="#aa894d"/><stop offset="0.47" stop-color="#dac99c"/><stop offset="0.61" stop-color="#ede2bb"/><stop offset="0.72" stop-color="#f4f2e5"/><stop offset="0.84" stop-color="#ede2bb"/><stop offset="1" stop-color="#a78548"/></linearGradient><linearGradient id="linear-gradient-2" x1="162.01" y1="102.05" x2="400.26" y2="102.05" xlink:href="#linear-gradient"/></defs><title>main-logo</title><g id="Слой_3" data-name="Слой 3"><path class="cls-1" d="M33,229.46v1.17a10.3,10.3,0,0,0-7.05,2.56c-1.93,1.7-2.9,4.54-2.9,8.5v77.25c0,3.92,1,6.76,3.09,8.54A10.24,10.24,0,0,0,33,330.13v1.11H3.55v-1.11a10.13,10.13,0,0,0,7-2.59q2.93-2.58,2.93-8.6V241.69q0-6.36-2.93-8.71a10.81,10.81,0,0,0-7-2.35v-1.17Z"/><path class="cls-1" d="M138.32,229.46v1.17a18.91,18.91,0,0,0-5.58,1.49,6.83,6.83,0,0,0-3.17,3.94,24.41,24.41,0,0,0-1.14,8.46V333.8h-.63L56.61,246.6v62.6a85.86,85.86,0,0,0,.57,11.61,14.37,14.37,0,0,0,1.64,5.45q2.32,3.6,8.12,3.87v1.11H43.71v-1.11a10.82,10.82,0,0,0,6.07-1.83q2.17-1.62,3.09-5.94a68.18,68.18,0,0,0,.91-13V242.93l-3.08-3.8q-4.1-5.12-6.55-6.46a20.67,20.67,0,0,0-6.1-2v-1.17H55.48l70.12,86.23V250a84.65,84.65,0,0,0-.53-11,9.89,9.89,0,0,0-2.84-5.88q-2.3-2.2-7.2-2.42v-1.17Z"/><path class="cls-1" d="M146.88,230.63v-1.17h55.64v15.48h-1a16.13,16.13,0,0,0-3.18-8.54q-2.81-3.77-9.6-3.76H166.45v46.09h20.77c3.95,0,6.63-.89,8.06-2.67a14.69,14.69,0,0,0,2.77-7.35h1v23.08h-1a13.05,13.05,0,0,0-2.61-7.16q-2.24-2.79-8.22-2.79H166.45v37.1a12,12,0,0,0,2.64,8.12,8.13,8.13,0,0,0,6.36,3.07h1.32v1.11H146.88v-1.11h1.25A7.69,7.69,0,0,0,154.4,327a12.57,12.57,0,0,0,2.48-8.08V242q0-6.57-2.7-8.95a8.94,8.94,0,0,0-6.05-2.39Z"/><path class="cls-1" d="M242.36,229.46v1.17a10.3,10.3,0,0,0-7.05,2.56c-1.93,1.7-2.9,4.54-2.9,8.5v77.25c0,3.92,1,6.76,3.09,8.54a10.24,10.24,0,0,0,6.86,2.65v1.11H213v-1.11a10.13,10.13,0,0,0,6.95-2.59q2.93-2.58,2.93-8.6V241.69q0-6.36-2.93-8.71a10.8,10.8,0,0,0-6.95-2.35v-1.17Z"/><path class="cls-1" d="M347.73,229.46v1.17a18.84,18.84,0,0,0-5.57,1.49,6.8,6.8,0,0,0-3.18,3.94,24.41,24.41,0,0,0-1.14,8.46V333.8h-.62L266,246.6v62.6a88,88,0,0,0,.56,11.61,14.56,14.56,0,0,0,1.64,5.45q2.32,3.6,8.12,3.87v1.11H253.12v-1.11a10.86,10.86,0,0,0,6.08-1.83q2.16-1.62,3.08-5.94a68.18,68.18,0,0,0,.91-13V242.93l-3.08-3.8q-4.1-5.12-6.55-6.46a20.57,20.57,0,0,0-6.1-2v-1.17h17.43L335,315.69V250a84.65,84.65,0,0,0-.53-11,9.88,9.88,0,0,0-2.83-5.88q-2.31-2.2-7.21-2.42v-1.17Z"/><path class="cls-1" d="M386.06,229.46v1.17a10.3,10.3,0,0,0-7.05,2.56c-1.93,1.7-2.9,4.54-2.9,8.5v77.25c0,3.92,1,6.76,3.09,8.54a10.24,10.24,0,0,0,6.86,2.65v1.11h-29.4v-1.11a10.13,10.13,0,0,0,7-2.59q2.92-2.58,2.93-8.6V241.69q0-6.36-2.93-8.71a10.81,10.81,0,0,0-7-2.35v-1.17Z"/><path class="cls-1" d="M474.56,249.29h-1q-.69-9.94-5.29-12.89a20.68,20.68,0,0,0-11.33-2.93H438.49v85.47q0,10.85,10.07,11.19v1.11H419v-1.11a10.81,10.81,0,0,0,7-2.65c1.91-1.69,2.86-4.53,2.86-8.54V233.47H410.48a20.53,20.53,0,0,0-11.3,2.93q-4.56,2.94-5.32,12.89h-1V224.41h1a15.31,15.31,0,0,0,1.77,2.56,6.38,6.38,0,0,0,1.95,1.42,9.5,9.5,0,0,0,2.8.83,26.16,26.16,0,0,0,3.81.24h60a10.55,10.55,0,0,0,9.32-5.05h1Z"/><path class="cls-1" d="M564,229.46v1.17a13.93,13.93,0,0,0-7.4,2.14,21.31,21.31,0,0,0-5.06,4.32,66.27,66.27,0,0,0-3.91,5.43L526,278.31v40.77q0,5.46,3,8.19a10.85,10.85,0,0,0,7.21,2.86v1.11h-29.4v-1.11a9.92,9.92,0,0,0,7.08-2.79q2.63-2.67,2.62-8.26V280l-23.61-38.83c-2.51-4.2-4.77-7-6.76-8.37a14.8,14.8,0,0,0-8.09-2.21v-1.17h32.92v1.17q-5,.21-6.45,2.39a7.57,7.57,0,0,0-1.42,4.11c0,1.47.82,3.55,2.46,6.22l19.32,31.44L542,246.46q3.9-6.36,3.9-9.75a5.73,5.73,0,0,0-1-3.66,5.26,5.26,0,0,0-2.11-1.73,18.65,18.65,0,0,0-2.26-.69v-1.17Z"/><g id="Слой_1" data-name="Слой 1"><path class="cls-1" d="M179.8,354.92c3.75.6,5.9,2.35,6.43,5.24l.12.81q.22,1.61-2.53,7.26v.4l.46-.1,10.58-9.48q1.38-.09,9.19-6.45a5.06,5.06,0,0,0,1.38.3.82.82,0,0,1,.81-.9l2.3-.31c4.06.61,6.28,1.95,6.66,4q-2.74,3.22-4.13,3.32a5.77,5.77,0,0,0-2.88-.4q-4.24.71-23,23.69-3.45,5.85-8,7.56l-.92.1q-3,.3-7.24-4.84-.92-5,6-25.2Q174.39,356.23,179.8,354.92Z"/><path class="cls-1" d="M240.61,347.46h.46q14.37,1.41,15.29,11.09,0,10-20.23,22.88-7.81,6.36-14.26,6.35-11.49-3.42-11.49-14,0-7.45,5.51-16.43a13.11,13.11,0,0,1,3.68-1.31q5.52.9,5.52,5Q220,371.45,220,376.79a6.32,6.32,0,0,0,.92,3.33q6.33-.81,17.94-8.87Q249,362.69,249,359.86c-.3,0-.46-.13-.46-.4l.92-.51q-5.06-5.15-7.47-5.14a3.81,3.81,0,0,0-1.38-.4q-.69.6-5.86,3.93v-.5c-2.53-.54-3.8-1.11-3.8-1.72l-.92.4h-.91v-.4q3.44-4.33,5.51-5.14l-.46-.81v-.9h1.38C238.54,347.73,240.23,347.46,240.61,347.46Zm-4.94,9.27h.46q.92,0-3.34-.9h-.46C231.72,355.89,232.83,356.2,235.67,356.73Z"/><path class="cls-1" d="M286.25,343.63q10.13,0,12.65,6.45V351q0,.4-9.43,11.39-1.5,1.71-5.86,1.71l-1.15-3.32L289,350.48q-2.76-1.82-10.69,2.12T271.08,365q1,1.92,11.72,5.24,10.69,2.11,11,6.86-1.62,8.26-16.44,10.08-11.26,1.31-17.47-3.13-5.3-3.93-5.29-4.94c-.92-.87-1-1.51-.12-1.91l1.84-1.21a39.81,39.81,0,0,0,6.38,4.28q4.77,2.78,13.51,1.06l4.6-1.51,1.61-2.72q-.24-2.22-13.91-5.24-5.3-2.62-6.21-5.55a16.84,16.84,0,0,1-1.15-3.12q0-9.07,18.05-18.75Q280.27,344.44,286.25,343.63Z"/><path class="cls-1" d="M337.18,343.73h3.68q5.86,0,7.36,7.86,0,9.38-12.88,16.23-8.73,6.76-15.63,6.76a22,22,0,0,0-4.14-.71c0,.27-.16.4-.46.4q1,6.76,5.52,6.76h.92q4,0,20.69-4.94a19.64,19.64,0,0,1,5.52-2.62v.8c.46,0,.92-.4,1.38-1.21-.31,0-.46-.1-.46-.3a10.28,10.28,0,0,1,4.14-1.21.83.83,0,0,0,.92.81v-1.11h.46l.91.3a2.29,2.29,0,0,0,.47-1.11H356v1.11l-.93,1.21c.31,0,.47.1.47.3a19.35,19.35,0,0,1-7.82,5.65q0,1.52-12.88,6.86a38.38,38.38,0,0,1-11.49,2.21q-11.85,0-17-12.09v-3.33h.46v-1.11h-.92V370h.46l.92.4.46-2.62h-.92v-.7h.46l.92.3c1-3.23,2.22-4.84,3.68-4.84l-.46-.81q2.29-4.63,4.6-5.94l-.46-.81v-.4q2.3,0,3.22-3.33,1,0,4.13-3Q331.67,344.13,337.18,343.73Zm-18.39,23q3.1-.39,15.63-7.56c4.6-3.42,6.9-5.31,6.9-5.64l-.46-.71c.61,0,.92-.26.92-.8-.61,0-.92-.37-.92-1.11l.46-1.92a4.91,4.91,0,0,0-1.38-.3q-7.71,1.11-17,11.29C320.47,363,319.09,365.24,318.79,366.71Z"/><path class="cls-1" d="M381.33,343.63q10.11,0,12.64,6.45V351q0,.4-9.43,11.39c-1,1.14-3,1.71-5.86,1.71l-1.15-3.32,6.56-10.29q-2.76-1.82-10.7,2.12T366.15,365q1,1.92,11.73,5.24,10.68,2.11,11,6.86-1.61,8.26-16.44,10.08-11.27,1.31-17.47-3.13c-3.52-2.62-5.29-4.27-5.29-4.94-.92-.87-1-1.51-.11-1.91l1.84-1.21a39.33,39.33,0,0,0,6.38,4.28q4.77,2.78,13.5,1.06l4.6-1.51,1.61-2.72q-.22-2.22-13.91-5.24-5.28-2.62-6.21-5.55a17.74,17.74,0,0,1-1.15-3.12q0-9.07,18.05-18.75Q375.35,344.44,381.33,343.63Z"/></g><path class="cls-2" d="M396.59,132.6c-6,11.27-19,22.3-35.49,30.22-23.39,11.19-19.48,22-32.94,38.63h68.43Z"/><path class="cls-3" d="M396.57,106.09h0V2.64H331.27c4.71,9.47,5.53,19.5,5.92,25.68.23,3.67-1,4.58-2.88,2.37-5.87-7-15-22.44-30.68-28H268.56a8.66,8.66,0,0,1-2,.42c-10.63,2.91-18.8,9-24.19,21.35-4.36,10-5.61,21.75-6.32,33.52-.75,12.63.29,22.73-5.56,22.61-10.09-.2-18.49-39.67-10.27-57.77A79.53,79.53,0,0,1,234,2.64h-8.52c-7.52,7.14-24.76,23.56-10.86,71,.65,2.23-.58,4.69-3.58,2.36-9.87-7.68-28.69-23.52-29-40.08-.33-17.32,2.66-26.43,8.73-33.29h-18v62c4.6-2.59,9.28-3.63,10.86-3.21,3.91,1,17.07,18.92,21.67,31.47s-3.16,35.36-3.16,35.36,22.63,6,33.32,16.87,32.48,21,32.9,25.76c.38,4.36-73.56.79-95.59-20.33v50.89H291.1c-15.65-7.44-28.27-19.27-20.28-22.6,14.81-6.17,75.47-25.08,84.93-68.89s-2.26-73.62-6.17-88.42c3.08-8.64,34.13-11.52,40.31,29.81S384.75,89.6,386.4,95C387.51,98.6,392.84,100.34,396.57,106.09ZM244.09,52.38c4.11-17.27,6.17-32.28,30.23-39.89s46.26,6.37,47.91,30.84-8.84,37.23-20.57,42.57-5.55-9.79-2.26-13.16,19.75-32.52,5.35-46.06c-17.58-16.55-37.84-2.06-41.75,5.55s-5.35,27.37,12.55,27c15.63-.3,16.65-18,13.16-23.53s-13.16-1.86-16.25,2.05-.41,10.08-2.88,9.46-6.36-4.73-1.23-13.16,21.39-11.52,27.76-4.75,6.59,9,4.93,19.76S283,85.78,278.86,89.69s-26.55,2-30.67-.5S240,69.65,244.09,52.38Zm94.8,70.33c-7.34,12.75-46.48,50.39-74.25,33.53-35-21.3-27.87-28.8-49.45-30.44-.08-3.29-.1-27.56,35.27-25.71,34.34,1.8,78.35,8,79-58,0-2,1.53-2.52,2.51-.87C355.33,80.54,346,110.43,338.89,122.71Z"/></g></svg>