<svg id="Layer_1" data-name="Layer 1" xmlns="http://www.w3.org/2000/svg" viewBox="0 0 560.21 387.19"><defs><style>.cls-1{fill:#fff;}</style></defs><title>white-logo</title><g id="Слой_3" data-name="Слой 3"><g id="Слой_1" data-name="Слой 1"><path class="cls-1" d="M180.17,354.8c3.75.6,5.9,2.35,6.43,5.24l.12.81c.15,1.07-.7,3.49-2.53,7.25v.4l.46-.1,10.57-9.47c.92-.06,4-2.22,9.2-6.45a4.67,4.67,0,0,0,1.38.3.82.82,0,0,1,.71-.9h.09l2.3-.3q6.09.9,6.66,4c-1.84,2.15-3.21,3.26-4.13,3.32a5.68,5.68,0,0,0-2.88-.4q-4.25.71-23,23.68-3.45,5.83-8,7.56l-.92.1q-3,.3-7.24-4.84-.93-5,6-25.19Q174.77,356.1,180.17,354.8Z" transform="translate(-4 -2.67)"/><path class="cls-1" d="M241,347.34h.46q14.35,1.41,15.28,11.09,0,10-20.22,22.87-7.82,6.34-14.25,6.35-11.49-3.42-11.49-14,0-7.45,5.51-16.42a12.93,12.93,0,0,1,3.68-1.31q5.52.9,5.52,5-5.07,10.38-5.06,15.72a6.27,6.27,0,0,0,.92,3.32q6.32-.81,17.93-8.87,10.11-8.56,10.11-11.38c-.31,0-.46-.14-.46-.41l.92-.5q-5.06-5.15-7.47-5.14a3.92,3.92,0,0,0-1.38-.4q-.69.6-5.86,3.93v-.51c-2.53-.53-3.79-1.1-3.79-1.71l-.92.4h-.92V355c2.3-2.89,4.13-4.6,5.51-5.14l-.46-.8v-.91h1.38C238.89,347.61,240.58,347.34,241,347.34Zm-5,9.27h.46q.91,0-3.33-.9h-.46C232.07,355.77,233.18,356.08,236,356.61Z" transform="translate(-4 -2.67)"/><path class="cls-1" d="M286.58,343.51q10.11,0,12.64,6.45v.91q0,.4-9.42,11.39-1.5,1.71-5.86,1.71l-1.15-3.33,6.55-10.27q-2.76-1.81-10.69,2.11t-7.24,12.4q1,1.9,11.72,5.24,10.69,2.11,11,6.85-1.61,8.26-16.43,10.07-11.26,1.32-17.47-3.12Q255,380,255,379c-.92-.87-1-1.51-.12-1.91l1.84-1.21a39.07,39.07,0,0,0,6.38,4.28q4.77,2.77,13.5,1.06l4.6-1.51,1.61-2.72q-.24-2.22-13.91-5.24c-3.52-1.75-5.59-3.59-6.2-5.54a16.54,16.54,0,0,1-1.15-3.13q0-9.06,18-18.74Q280.62,344.33,286.58,343.51Z" transform="translate(-4 -2.67)"/><path class="cls-1" d="M337.49,343.62h3.68q5.85,0,7.35,7.85,0,9.38-12.87,16.23-8.73,6.75-15.63,6.75a21.47,21.47,0,0,0-4.14-.71c0,.27-.15.41-.46.41q1,6.75,5.52,6.75h.92q4,0,20.68-4.94a20.27,20.27,0,0,1,5.52-2.62v.81c.46,0,.92-.41,1.38-1.21-.31,0-.46-.1-.46-.31a10.2,10.2,0,0,1,4.14-1.2.82.82,0,0,0,.85.8H354v-1.11h.46l.91.31a2.27,2.27,0,0,0,.46-1.11h.46v1.11l-.92,1.2c.31,0,.46.11.46.31a19.33,19.33,0,0,1-7.81,5.64q0,1.51-12.87,6.85a37.89,37.89,0,0,1-11.49,2.22q-11.83,0-17-12.09v-3.33h.46v-1.11h-.92v-1.21h.46l.92.41.46-2.62h-.92V367h.46l.92.3q1.48-4.83,3.68-4.83l-.46-.81q2.3-4.64,4.59-5.94l-.46-.81v-.4q2.31,0,3.22-3.33,1,0,4.14-3Q332,344,337.49,343.62Zm-18.39,23q3.11-.4,15.63-7.56,6.9-5.13,6.9-5.64l-.46-.71c.61,0,.92-.26.92-.8-.62,0-.92-.37-.92-1.11l.46-1.91a4.68,4.68,0,0,0-1.38-.31q-7.71,1.11-17,11.29c-2.45,3-3.84,5.24-4.15,6.72Z" transform="translate(-4 -2.67)"/><path class="cls-1" d="M381.61,343.51q10.13,0,12.65,6.45v.91q0,.4-9.43,11.39Q383.33,364,379,364l-1.15-3.33,6.55-10.27c-1.83-1.21-5.4-.51-10.68,2.11s-7.7,6.75-7.24,12.4q1,1.9,11.72,5.24,10.68,2.11,11,6.85-1.6,8.26-16.43,10.07-11.26,1.32-17.47-3.12c-3.52-2.62-5.29-4.27-5.29-4.94-.92-.87-1-1.51-.11-1.91l1.84-1.21a39,39,0,0,0,6.37,4.28q4.77,2.78,13.51,1.06l4.59-1.51,1.61-2.72q-.23-2.22-13.9-5.24c-3.53-1.75-5.59-3.59-6.21-5.54a17.25,17.25,0,0,1-1.15-3.13q0-9.06,18.05-18.74Q375.65,344.32,381.61,343.51Z" transform="translate(-4 -2.67)"/></g><path class="cls-1" d="M33.38,229.39v1.17a10.29,10.29,0,0,0-7,2.56c-1.93,1.71-2.89,4.54-2.9,8.5v77.22c0,3.91,1,6.76,3.08,8.53A10.27,10.27,0,0,0,33.38,330v1.1H4V330a10.14,10.14,0,0,0,7-2.59q2.92-2.6,2.93-8.6V241.62q0-6.36-2.93-8.71a10.81,10.81,0,0,0-7-2.35v-1.17Z" transform="translate(-4 -2.67)"/><path class="cls-1" d="M138.71,229.39v1.17a18.91,18.91,0,0,0-5.57,1.49A6.87,6.87,0,0,0,130,236a24.51,24.51,0,0,0-1.13,8.46V333.7h-.63L57,246.52V309.1a86.42,86.42,0,0,0,.57,11.6,14.52,14.52,0,0,0,1.63,5.46q2.32,3.58,8.12,3.87v1.1H44.14V330a11,11,0,0,0,6.07-1.83q2.17-1.64,3.09-5.95a69,69,0,0,0,.91-13V242.86l-3.09-3.8q-4.08-5.12-6.54-6.46a21.21,21.21,0,0,0-6.1-2v-1.17H55.91L126,315.59V249.9a81.63,81.63,0,0,0-.54-11.05,9.87,9.87,0,0,0-2.83-5.87q-2.3-2.21-7.2-2.42v-1.17Z" transform="translate(-4 -2.67)"/><path class="cls-1" d="M147.26,230.56v-1.17h55.62v15.47h-1a16.19,16.19,0,0,0-3.17-8.53q-2.81-3.77-9.6-3.76H166.83v46.07h20.76c3.94,0,6.63-.89,8-2.66a14.56,14.56,0,0,0,2.77-7.36h1v23.07h-1a13.05,13.05,0,0,0-2.61-7.15c-1.49-1.86-4.22-2.79-8.21-2.79H166.83v37.09a12,12,0,0,0,2.64,8.11,8.13,8.13,0,0,0,6.36,3.08h1.32v1.1H147.26V330h1.26a7.72,7.72,0,0,0,6.26-3.11,12.54,12.54,0,0,0,2.49-8.08V241.89c0-4.37-.91-7.35-2.71-8.94a8.91,8.91,0,0,0-6-2.39Z" transform="translate(-4 -2.67)"/><path class="cls-1" d="M242.71,229.39v1.17a10.3,10.3,0,0,0-7.05,2.56c-1.93,1.71-2.9,4.54-2.89,8.5v77.22c0,3.91,1,6.76,3.08,8.53a10.24,10.24,0,0,0,6.86,2.66v1.1H213.32V330a10.18,10.18,0,0,0,7-2.59q2.93-2.6,2.92-8.6V241.62q0-6.36-2.92-8.71a10.83,10.83,0,0,0-7-2.35v-1.17Z" transform="translate(-4 -2.67)"/><path class="cls-1" d="M348,229.39v1.17a18.91,18.91,0,0,0-5.57,1.49,6.83,6.83,0,0,0-3.17,3.94,24.25,24.25,0,0,0-1.14,8.46v89.24h-.63l-71.16-87.17V309.1a86.42,86.42,0,0,0,.57,11.6,14.53,14.53,0,0,0,1.64,5.46q2.32,3.58,8.11,3.87v1.1H253.47V330a11,11,0,0,0,6.07-1.83q2.16-1.64,3.08-5.95a68.18,68.18,0,0,0,.91-13V242.86l-3.08-3.8q-4.09-5.12-6.54-6.46a21.17,21.17,0,0,0-6.11-2v-1.17h17.43l70.09,86.2V249.9a85,85,0,0,0-.53-11.05A9.85,9.85,0,0,0,332,233q-2.29-2.2-7.2-2.42v-1.17Z" transform="translate(-4 -2.67)"/><path class="cls-1" d="M386.35,229.39v1.17a10.3,10.3,0,0,0-7.05,2.56c-1.93,1.71-2.9,4.54-2.89,8.5v77.22c0,3.91,1,6.76,3.08,8.53a10.24,10.24,0,0,0,6.86,2.66v1.1H357V330a10.18,10.18,0,0,0,7-2.59c1.95-1.73,2.93-4.6,2.92-8.6V241.62q0-6.36-2.92-8.71a10.83,10.83,0,0,0-7-2.35v-1.17Z" transform="translate(-4 -2.67)"/><path class="cls-1" d="M474.81,249.21h-1q-.69-9.94-5.28-12.88a20.7,20.7,0,0,0-11.33-2.93H438.75v85.44q0,10.85,10.07,11.19v1.1H419.31V330a10.86,10.86,0,0,0,7-2.66c1.91-1.68,2.86-4.53,2.86-8.53V233.4H410.76a20.5,20.5,0,0,0-11.3,2.93q-4.56,2.94-5.31,12.88h-1V224.35h1a15.42,15.42,0,0,0,1.76,2.55,6.08,6.08,0,0,0,1.95,1.42,9.51,9.51,0,0,0,2.8.83,27,27,0,0,0,3.81.24h60a10.57,10.57,0,0,0,9.31-5h1Z" transform="translate(-4 -2.67)"/><path class="cls-1" d="M564.21,229.39v1.17a13.81,13.81,0,0,0-7.39,2.15,21.17,21.17,0,0,0-5.07,4.31q-1.82,2.25-3.9,5.43l-21.64,35.77V319q0,5.46,3,8.19a10.88,10.88,0,0,0,7.2,2.87v1.1H507V330a10,10,0,0,0,7.08-2.8c1.74-1.77,2.61-4.53,2.61-8.26V280L493.1,241.18q-3.78-6.28-6.77-8.35a14.68,14.68,0,0,0-8.08-2.22v-1.17h32.9v1.17q-5,.21-6.45,2.39a7.58,7.58,0,0,0-1.41,4.11q0,2.2,2.45,6.21l19.32,31.43,17.11-28.32q3.9-6.35,3.9-9.74a5.73,5.73,0,0,0-1-3.66,5.25,5.25,0,0,0-2.1-1.72,16.53,16.53,0,0,0-2.27-.7v-1.17Z" transform="translate(-4 -2.67)"/><path class="cls-1" d="M396.87,132.58c-6,11.26-18.95,22.28-35.48,30.2C338,174,341.93,184.72,328.48,201.4h68.39Z" transform="translate(-4 -2.67)"/><path class="cls-1" d="M396.85,106.08h0V2.67H331.58c4.71,9.46,5.52,19.49,5.92,25.67.23,3.66-1,4.57-2.88,2.36-5.87-6.94-15-22.42-30.67-28H268.9a8.08,8.08,0,0,1-2,.41c-10.63,2.91-18.8,9-24.18,21.35-4.36,10-5.61,21.74-6.32,33.5-.75,12.63.29,22.72-5.56,22.61-10.08-.2-18.48-39.66-10.27-57.75A79.34,79.34,0,0,1,234.3,2.67h-8.52c-7.52,7.13-24.75,23.55-10.85,71,.64,2.23-.58,4.68-3.58,2.35-9.87-7.67-28.68-23.5-29-40.06C182,18.63,185,9.52,191.08,2.67h-18v62c4.6-2.59,9.28-3.62,10.86-3.21,3.91,1,17.07,18.91,21.66,31.46s-3.15,35.35-3.15,35.35,22.61,6,33.3,16.85,32.47,21,32.89,25.76c.37,4.36-73.54.79-95.56-20.33V201.4h118.3c-15.65-7.45-28.26-19.27-20.28-22.59,14.81-6.17,75.44-25.08,84.9-68.87s-2.26-73.58-6.17-88.38C353,12.92,384,10,390.17,51.36S385,89.6,386.68,94.94C387.8,98.58,393.12,100.32,396.85,106.08ZM244.43,52.39c4.12-17.27,6.17-32.27,30.22-39.88s46.25,6.37,47.89,30.83S313.71,80.55,302,85.89s-5.55-9.78-2.25-13.15,19.73-32.51,5.34-46c-17.57-16.54-37.83-2-41.73,5.55s-5.34,27.37,12.54,27c15.62-.29,16.65-18,13.16-23.52s-13.16-1.85-16.24,2-.42,10.08-2.88,9.46-6.37-4.73-1.23-13.16,21.38-11.51,27.74-4.74,6.59,8.94,4.94,19.75-18.08,36.7-22.19,40.6-26.55,2-30.66-.5S240.32,69.65,244.43,52.39Zm94.77,70.3c-7.34,12.74-46.46,50.36-74.22,33.51-35-21.29-27.86-28.78-49.44-30.43-.07-3.28-.09-27.54,35.27-25.7,34.32,1.81,78.32,8.05,79-57.95,0-2,1.53-2.51,2.51-.86,23.31,39.28,13.95,69.16,6.88,81.43Z" transform="translate(-4 -2.67)"/></g></svg>