<?xml version="1.0" encoding="utf-8"?>
<!-- Generator: Adobe Illustrator 22.1.0, SVG Export Plug-In . SVG Version: 6.00 Build 0)  -->
<svg version="1.1" id="Layer_1" xmlns="http://www.w3.org/2000/svg" xmlns:xlink="http://www.w3.org/1999/xlink" x="0px" y="0px"
	 viewBox="0 0 512 512" style="enable-background:new 0 0 512 512;" xml:space="preserve">
<style type="text/css">
	.st0{fill:#B89C64;}
</style>
<path d="M297.3,508.7c-2.1,0.3-4.3,0.7-6.4,1C293,509.3,295.1,509,297.3,508.7z"/>
<path d="M302.4,507.8c-1,0.2-2,0.4-3.1,0.5C300.4,508.2,301.4,508,302.4,507.8z"/>
<path d="M285.1,510.3c-2.5,0.3-5,0.5-7.5,0.7C280.1,510.9,282.6,510.6,285.1,510.3z"/>
<path d="M290.1,509.7c-1.2,0.2-2.4,0.3-3.6,0.4C287.6,510,288.9,509.9,290.1,509.7z"/>
<path d="M309.4,506.4c-0.9,0.2-1.8,0.4-2.7,0.6C307.6,506.8,308.5,506.6,309.4,506.4z"/>
<path d="M326.7,502.1c-0.7,0.2-1.5,0.4-2.2,0.6C325.2,502.5,325.9,502.3,326.7,502.1z"/>
<path d="M321.4,503.5c-0.8,0.2-1.6,0.4-2.4,0.6C319.9,504,320.6,503.8,321.4,503.5z"/>
<path d="M314.6,505.3c-0.8,0.2-1.7,0.4-2.5,0.6C312.9,505.6,313.8,505.4,314.6,505.3z"/>
<path d="M277.5,511.1c-1.3,0.1-2.7,0.2-4,0.3C274.8,511.3,276.2,511.2,277.5,511.1z"/>
<path d="M272.9,511.4c-2.7,0.2-5.3,0.3-8,0.4C267.6,511.7,270.3,511.6,272.9,511.4z"/>
<path d="M264.8,511.8c-1.4,0-2.8,0.1-4.3,0.1C261.9,511.9,263.3,511.9,264.8,511.8z"/>
<g>
	<path class="st0" d="M338,180l-135.1,83.2c-5.2,3.2-7.6,9.5-6,15.3l14.6,51.3c1,3.6,6.3,3.3,6.8-0.5l3.8-28.1
		c0.8-5.3,3.3-10.2,7.2-13.8l111.5-103.7C342.9,181.8,340.4,178.5,338,180z"/>
	<path class="st0" d="M256,0C114.6,0,0,114.6,0,256s114.6,256,256,256s256-114.6,256-256S397.4,0,256,0z M405.8,135.7l-50.9,244.9
		c-1.2,5.8-8,8.4-12.8,4.9L272.6,335c-4.2-3.1-10-2.9-14,0.4l-38.5,31.4c-4.4,3.6-11.2,1.6-12.9-3.9l-26.8-86l-69.1-25.8
		c-7-2.6-7.1-12.5-0.1-15.2l283.7-109.5C400.9,124.1,407.1,129.4,405.8,135.7z"/>
</g>
</svg>
